<svg xmlns="http://www.w3.org/2000/svg" width="178" height="177" viewBox="0 0 178 177" fill="none">
    <path d="M26.075 75.8763H45.7591C55.1964 75.8763 62.2757 77.7994 66.9935 81.6458C71.7112 85.4921 74.0728 91.2298 74.0728 98.857C74.0728 104.869 72.4377 109.735 69.1747 113.449C65.9099 117.168 61.0455 119.671 54.5813 120.965L74.1682 147.532H60.3013L35.0898 111.752H44.6897C50.8958 111.752 55.4527 110.734 58.3622 108.697C61.2717 106.661 62.7265 103.446 62.7265 99.0497C62.7265 94.6536 61.3035 91.3889 58.4612 89.4498C55.6153 87.5107 50.9948 86.5421 44.5943 86.5421H37.3205V147.532H26.0732V75.8745L26.075 75.8763Z" fill="#A1FDB0"/>
    <path d="M84.7383 75.8764H95.9856V136.866H120.421V147.532H84.7365V75.8746L84.7383 75.8764Z" fill="#A1FDB0"/>
    <path d="M114.476 33.1793L119.651 28.2406C120.047 27.8712 120.376 27.5336 120.639 27.2331C120.903 26.9291 121.109 26.6533 121.261 26.4023C121.412 26.1531 121.521 25.9056 121.587 25.6599C121.652 25.4177 121.684 25.1579 121.684 24.8821C121.684 24.5127 121.624 24.1751 121.505 23.8746C121.387 23.5706 121.216 23.3054 120.993 23.0721C120.768 22.8423 120.508 22.6656 120.212 22.5383C119.915 22.4146 119.589 22.3527 119.234 22.3527C118.442 22.3527 117.818 22.6302 117.357 23.1906C116.897 23.7527 116.666 24.518 116.666 25.492H114.453C114.453 24.6895 114.564 23.9683 114.788 23.3302C115.011 22.6903 115.329 22.1494 115.736 21.7004C116.144 21.2515 116.646 20.9068 117.237 20.6611C117.829 20.4189 118.488 20.297 119.213 20.297C119.897 20.297 120.528 20.4101 121.099 20.6416C121.672 20.8714 122.167 21.1932 122.582 21.6085C122.997 22.0239 123.326 22.5188 123.57 23.0916C123.814 23.6643 123.936 24.2794 123.936 24.9405C123.936 25.3736 123.89 25.7748 123.796 26.1442C123.704 26.5137 123.551 26.8866 123.333 27.2596C123.117 27.6361 122.829 28.025 122.474 28.4245C122.119 28.8257 121.677 29.2729 121.15 29.759L117.594 33.0591H123.856V35.152H114.472V33.1776L114.476 33.1793Z" fill="white"/>
    <path d="M125.421 25.4339C125.421 24.6455 125.532 23.9314 125.757 23.2915C125.979 22.6516 126.303 22.1143 126.725 21.6706C127.146 21.2305 127.66 20.8929 128.265 20.6542C128.871 20.4174 129.557 20.2989 130.321 20.2989C131.084 20.2989 131.749 20.4121 132.355 20.6436C132.962 20.8734 133.476 21.2057 133.897 21.6406C134.317 22.0736 134.641 22.6039 134.865 23.2314C135.09 23.8554 135.201 24.5642 135.201 25.3561V30.1357C135.201 31.8344 134.793 33.1389 133.976 34.0492C133.16 34.956 131.981 35.412 130.439 35.412C128.898 35.412 127.611 34.9507 126.734 34.028C125.859 33.1071 125.421 31.8079 125.421 30.1357V25.4339ZM128.336 32.5167C128.79 33.0753 129.465 33.3563 130.36 33.3563C131.254 33.3563 131.913 33.0859 132.336 32.545C132.757 32.0059 132.967 31.168 132.967 30.0367V25.5523C132.967 24.5006 132.746 23.7016 132.306 23.1625C131.866 22.6216 131.21 22.3529 130.34 22.3529C129.471 22.3529 128.806 22.6269 128.345 23.1731C127.883 23.7193 127.652 24.5129 127.652 25.5523V29.9996C127.652 31.1185 127.88 31.9581 128.334 32.5185L128.336 32.5167Z" fill="white"/>
    <path d="M136.522 33.1793L141.697 28.2406C142.093 27.8712 142.422 27.5336 142.685 27.2331C142.949 26.9291 143.156 26.6533 143.308 26.4023C143.458 26.1531 143.567 25.9056 143.633 25.6599C143.698 25.4177 143.73 25.1579 143.73 24.8821C143.73 24.5127 143.67 24.1751 143.552 23.8746C143.433 23.5706 143.262 23.3054 143.039 23.0721C142.814 22.8423 142.555 22.6656 142.258 22.5383C141.961 22.4146 141.636 22.3527 141.28 22.3527C140.488 22.3527 139.864 22.6302 139.403 23.1906C138.943 23.7527 138.712 24.518 138.712 25.492H136.499C136.499 24.6895 136.61 23.9683 136.835 23.3302C137.057 22.6903 137.376 22.1494 137.782 21.7004C138.19 21.2515 138.692 20.9068 139.283 20.6611C139.875 20.4189 140.534 20.297 141.259 20.297C141.943 20.297 142.574 20.4101 143.145 20.6416C143.718 20.8714 144.213 21.1932 144.628 21.6085C145.043 22.0239 145.372 22.5188 145.616 23.0916C145.86 23.6643 145.982 24.2794 145.982 24.9405C145.982 25.3736 145.936 25.7748 145.842 26.1442C145.75 26.5137 145.597 26.8866 145.379 27.2596C145.164 27.6361 144.876 28.025 144.52 28.4245C144.165 28.8257 143.723 29.2729 143.196 29.759L139.64 33.0591H145.903V35.152H136.518V33.1776L136.522 33.1793Z" fill="white"/>
    <path d="M149.463 30.7101C149.529 31.1308 149.645 31.502 149.81 31.8255C149.974 32.1472 150.174 32.423 150.413 32.6527C150.649 32.8843 150.92 33.0593 151.222 33.1777C151.524 33.2962 151.862 33.3563 152.23 33.3563C152.626 33.3563 152.993 33.2785 153.336 33.1265C153.677 32.9762 153.971 32.7659 154.215 32.4954C154.459 32.2267 154.65 31.9033 154.787 31.5285C154.927 31.152 154.994 30.7473 154.994 30.3124C154.994 29.8776 154.925 29.4799 154.787 29.1193C154.65 28.7552 154.459 28.4405 154.215 28.1701C153.971 27.8996 153.681 27.6875 153.345 27.539C153.009 27.387 152.643 27.3093 152.249 27.3093C151.775 27.3093 151.356 27.4118 150.994 27.6168C150.632 27.8201 150.266 28.1471 149.898 28.5961L147.961 28.041L149.304 20.5534H155.901V22.6498H151.003L150.45 25.7714C150.856 25.5858 151.213 25.4568 151.516 25.3843C151.818 25.3118 152.161 25.2765 152.543 25.2765C153.216 25.2765 153.836 25.402 154.411 25.653C154.985 25.904 155.48 26.2504 155.903 26.6994C156.325 27.1484 156.654 27.6769 156.891 28.2903C157.128 28.9019 157.246 29.5629 157.246 30.2753C157.246 30.9876 157.121 31.6965 156.87 32.3187C156.62 32.9444 156.274 33.4888 155.834 33.9484C155.392 34.4097 154.869 34.7703 154.262 35.0266C153.656 35.2847 153.004 35.4138 152.307 35.4138C151.611 35.4138 150.987 35.2971 150.4 35.0691C149.815 34.8375 149.297 34.514 148.85 34.1004C148.403 33.6868 148.037 33.1901 147.754 32.6174C147.471 32.0447 147.303 31.4083 147.252 30.7119H149.463V30.7101Z" fill="white"/>
    <path d="M177.354 176.968H0.592224V0.206573H177.354V176.968ZM10.5686 166.992H167.379V10.1812H10.5669V166.992H10.5686Z" fill="url(#paint0_linear_377_6949)"/>
    <defs>
        <linearGradient id="paint0_linear_377_6949" x1="88.9729" y1="0.206573" x2="88.9729" y2="176.968" gradientUnits="userSpaceOnUse">
            <stop stop-color="#D9F9AB"/>
            <stop offset="0.461538" stop-color="#7BE19F"/>
            <stop offset="1" stop-color="#DFFAB1"/>
        </linearGradient>
    </defs>
</svg>
