<svg xmlns="http://www.w3.org/2000/svg" viewBox="0 0 121 97" fill="none">
    <g filter="url(#filter0_i_377_433)">
        <path d="M-21.96 71.42V36.28C-21.96 30.8667 -21.1667 25.9667 -19.58 21.58C-17.9 17.1933 -15.5667 13.46 -12.58 10.38C-9.59333 7.3 -5.95333 4.92 -1.66 3.24C2.63333 1.56 7.44 0.719995 12.76 0.719995C17.9867 0.719995 22.7467 1.56 27.04 3.24C31.3333 4.82666 34.9733 7.11333 37.96 10.1C40.9467 13.0867 43.2333 16.7267 44.82 21.02C46.5 25.3133 47.34 30.0733 47.34 35.3V71.42C47.34 82.9933 44.4 91.9533 38.52 98.3C32.64 104.647 24.3333 107.82 13.6 107.82C2.49333 107.82 -6.23333 104.6 -12.58 98.16C-18.8333 91.72 -21.96 82.8067 -21.96 71.42ZM-3.34 70.86C-3.34 77.3933 -1.94 82.34 0.860002 85.7C3.66 89.06 7.72 90.74 13.04 90.74C18.36 90.74 22.28 89.1533 24.8 85.98C27.4133 82.7133 28.72 77.8133 28.72 71.28V36.28C28.72 30.3067 27.3667 25.7333 24.66 22.56C21.9533 19.3867 18.0333 17.8 12.9 17.8C7.86 17.8 3.89333 19.4333 1 22.7C-1.89333 25.9667 -3.34 30.4933 -3.34 36.28V70.86ZM52.8798 106V89.62L89.6998 54.76C91.8465 52.8 93.6665 50.9333 95.1599 49.16C96.6532 47.2933 97.8665 45.5667 98.7998 43.98C99.7332 42.3 100.433 40.6667 100.9 39.08C101.367 37.4 101.6 35.72 101.6 34.04C101.6 31.7067 101.227 29.56 100.48 27.6C99.7332 25.64 98.6598 23.96 97.2598 22.56C95.9532 21.0667 94.3665 19.9 92.4998 19.06C90.7265 18.22 88.7665 17.8 86.6198 17.8C81.7665 17.8 77.8465 19.6667 74.8598 23.4C71.9665 27.1333 70.5198 32.08 70.5198 38.24H52.1798C52.1798 32.4533 52.9732 27.2733 54.5598 22.7C56.1465 18.0333 58.4332 14.1133 61.4198 10.94C64.4065 7.67333 67.9998 5.15333 72.1998 3.37999C76.4932 1.60666 81.2532 0.719995 86.4798 0.719995C91.3332 0.719995 95.8132 1.56 99.9198 3.24C104.027 4.92 107.573 7.3 110.56 10.38C113.547 13.3667 115.88 16.9133 117.56 21.02C119.333 25.1267 120.22 29.56 120.22 34.32C120.22 37.4933 119.893 40.48 119.24 43.28C118.587 45.9867 117.467 48.6933 115.88 51.4C114.293 54.1067 112.24 56.9067 109.72 59.8C107.2 62.6933 104.027 65.8667 100.2 69.32L79.0598 88.5H119.8V106H52.8798Z" fill="#353638"/>
    </g>
    <defs>
        <filter id="filter0_i_377_433" x="-21.9609" y="0.719971" width="146.18" height="113" filterUnits="userSpaceOnUse" color-interpolation-filters="sRGB">
            <feFlood flood-opacity="0" result="BackgroundImageFix"/>
            <feBlend mode="normal" in="SourceGraphic" in2="BackgroundImageFix" result="shape"/>
            <feColorMatrix in="SourceAlpha" type="matrix" values="0 0 0 0 0 0 0 0 0 0 0 0 0 0 0 0 0 0 127 0" result="hardAlpha"/>
            <feOffset dx="4" dy="9"/>
            <feGaussianBlur stdDeviation="2.95"/>
            <feComposite in2="hardAlpha" operator="arithmetic" k2="-1" k3="1"/>
            <feColorMatrix type="matrix" values="0 0 0 0 0 0 0 0 0 0 0 0 0 0 0 0 0 0 0.35 0"/>
            <feBlend mode="normal" in2="shape" result="effect1_innerShadow_377_433"/>
        </filter>
    </defs>
</svg>
