<svg xmlns="http://www.w3.org/2000/svg" viewBox="0 0 121 98" fill="none">
    <g filter="url(#filter0_i_377_427)">
        <path d="M-21.96 71.42V36.28C-21.96 30.8667 -21.1667 25.9667 -19.58 21.58C-17.9 17.1933 -15.5667 13.46 -12.58 10.38C-9.59333 7.3 -5.95333 4.92 -1.66 3.24C2.63333 1.56 7.44 0.719995 12.76 0.719995C17.9867 0.719995 22.7467 1.56 27.04 3.24C31.3333 4.82666 34.9733 7.11333 37.96 10.1C40.9467 13.0867 43.2333 16.7267 44.82 21.02C46.5 25.3133 47.34 30.0733 47.34 35.3V71.42C47.34 82.9933 44.4 91.9533 38.52 98.3C32.64 104.647 24.3333 107.82 13.6 107.82C2.49333 107.82 -6.23333 104.6 -12.58 98.16C-18.8333 91.72 -21.96 82.8067 -21.96 71.42ZM-3.34 70.86C-3.34 77.3933 -1.94 82.34 0.860002 85.7C3.66 89.06 7.72 90.74 13.04 90.74C18.36 90.74 22.28 89.1533 24.8 85.98C27.4133 82.7133 28.72 77.8133 28.72 71.28V36.28C28.72 30.3067 27.3667 25.7333 24.66 22.56C21.9533 19.3867 18.0333 17.8 12.9 17.8C7.86 17.8 3.89333 19.4333 1 22.7C-1.89333 25.9667 -3.34 30.4933 -3.34 36.28V70.86ZM50.2198 74.64H68.9798C69.6332 79.5867 71.4532 83.5067 74.4398 86.4C77.4265 89.2933 81.2065 90.74 85.7799 90.74C88.1132 90.74 90.2599 90.32 92.2199 89.48C94.2732 88.64 95.9998 87.4733 97.3999 85.98C98.8932 84.3933 100.013 82.5733 100.76 80.52C101.6 78.3733 102.02 76.04 102.02 73.52C102.02 68.2 100.2 64 96.5598 60.92C92.9198 57.7467 87.9732 56.16 81.7198 56.16H78.6398V38.24H80.1798C84.8465 38.24 88.3932 37.3533 90.8198 35.58C93.3398 33.7133 94.5998 31.0533 94.5998 27.6C94.5998 24.7067 93.7598 22.3733 92.0798 20.6C90.3998 18.7333 88.2065 17.8 85.4998 17.8C82.8865 17.8 80.8798 18.5467 79.4798 20.04C78.1732 21.5333 77.2865 23.9133 76.8198 27.18H57.9198C58.5732 18.9667 61.3265 12.5267 66.1798 7.86C71.1265 3.1 77.5198 0.719995 85.3598 0.719995C89.3732 0.719995 93.0598 1.41999 96.4199 2.81999C99.8732 4.21999 102.813 6.17999 105.24 8.69999C107.76 11.1267 109.72 14.0667 111.12 17.52C112.52 20.88 113.22 24.5667 113.22 28.58C113.22 32.5933 112.52 36.0467 111.12 38.94C109.72 41.74 107.527 44.2133 104.54 46.36C109.953 48.7867 113.967 52.24 116.58 56.72C119.287 61.1067 120.64 66.5667 120.64 73.1C120.64 78.14 119.753 82.8067 117.98 87.1C116.3 91.3 113.92 94.94 110.84 98.02C107.76 101.1 104.073 103.527 99.7798 105.3C95.5799 106.98 90.9599 107.82 85.9198 107.82C80.9732 107.82 76.3532 107.027 72.0598 105.44C67.8598 103.76 64.1732 101.473 60.9998 98.58C57.9198 95.5933 55.3998 92.0933 53.4398 88.08C51.5732 83.9733 50.4998 79.4933 50.2198 74.64Z" fill="#353638"/>
    </g>
    <defs>
        <filter id="filter0_i_377_427" x="-21.9609" y="0.719971" width="146.602" height="113" filterUnits="userSpaceOnUse" color-interpolation-filters="sRGB">
            <feFlood flood-opacity="0" result="BackgroundImageFix"/>
            <feBlend mode="normal" in="SourceGraphic" in2="BackgroundImageFix" result="shape"/>
            <feColorMatrix in="SourceAlpha" type="matrix" values="0 0 0 0 0 0 0 0 0 0 0 0 0 0 0 0 0 0 127 0" result="hardAlpha"/>
            <feOffset dx="4" dy="9"/>
            <feGaussianBlur stdDeviation="2.95"/>
            <feComposite in2="hardAlpha" operator="arithmetic" k2="-1" k3="1"/>
            <feColorMatrix type="matrix" values="0 0 0 0 0 0 0 0 0 0 0 0 0 0 0 0 0 0 0.35 0"/>
            <feBlend mode="normal" in2="shape" result="effect1_innerShadow_377_427"/>
        </filter>
    </defs>
</svg>
