<svg xmlns="http://www.w3.org/2000/svg" viewBox="0 0 123 98" fill="none">
    <g filter="url(#filter0_i_377_421)">
        <path d="M-21.96 71.42V36.28C-21.96 30.8667 -21.1667 25.9667 -19.58 21.58C-17.9 17.1933 -15.5667 13.46 -12.58 10.38C-9.59333 7.3 -5.95333 4.92 -1.66 3.24C2.63333 1.56 7.44 0.719995 12.76 0.719995C17.9867 0.719995 22.7467 1.56 27.04 3.24C31.3333 4.82666 34.9733 7.11333 37.96 10.1C40.9467 13.0867 43.2333 16.7267 44.82 21.02C46.5 25.3133 47.34 30.0733 47.34 35.3V71.42C47.34 82.9933 44.4 91.9533 38.52 98.3C32.64 104.647 24.3333 107.82 13.6 107.82C2.49333 107.82 -6.23333 104.6 -12.58 98.16C-18.8333 91.72 -21.96 82.8067 -21.96 71.42ZM-3.34 70.86C-3.34 77.3933 -1.94 82.34 0.860002 85.7C3.66 89.06 7.72 90.74 13.04 90.74C18.36 90.74 22.28 89.1533 24.8 85.98C27.4133 82.7133 28.72 77.8133 28.72 71.28V36.28C28.72 30.3067 27.3667 25.7333 24.66 22.56C21.9533 19.3867 18.0333 17.8 12.9 17.8C7.86 17.8 3.89333 19.4333 1 22.7C-1.89333 25.9667 -3.34 30.4933 -3.34 36.28V70.86ZM48.5398 90.46V75.34L96.1399 2.54H111.82V73.8H122.74V90.46H111.82V106H93.1999V90.46H48.5398ZM67.4398 73.8H93.1999V33.9L67.4398 73.8Z" fill="#353638"/>
    </g>
    <defs>
        <filter id="filter0_i_377_421" x="-21.9609" y="0.719971" width="148.699" height="113" filterUnits="userSpaceOnUse" color-interpolation-filters="sRGB">
            <feFlood flood-opacity="0" result="BackgroundImageFix"/>
            <feBlend mode="normal" in="SourceGraphic" in2="BackgroundImageFix" result="shape"/>
            <feColorMatrix in="SourceAlpha" type="matrix" values="0 0 0 0 0 0 0 0 0 0 0 0 0 0 0 0 0 0 127 0" result="hardAlpha"/>
            <feOffset dx="4" dy="9"/>
            <feGaussianBlur stdDeviation="2.95"/>
            <feComposite in2="hardAlpha" operator="arithmetic" k2="-1" k3="1"/>
            <feColorMatrix type="matrix" values="0 0 0 0 0 0 0 0 0 0 0 0 0 0 0 0 0 0 0.35 0"/>
            <feBlend mode="normal" in2="shape" result="effect1_innerShadow_377_421"/>
        </filter>
    </defs>
</svg>
