<svg xmlns="http://www.w3.org/2000/svg" width="32" height="33" viewBox="0 0 32 33" fill="none">
    <path d="M15.9992 0.576172C12.8773 0.576172 9.82558 1.50191 7.22987 3.23631C4.63415 4.97071 2.61104 7.43588 1.41636 10.3201C0.221683 13.2043 -0.0908991 16.378 0.518142 19.4398C1.12718 22.5017 2.63049 25.3142 4.83797 27.5217C7.04544 29.7291 9.85794 31.2325 12.9198 31.8415C15.9817 32.4505 19.1553 32.138 22.0396 30.9433C24.9238 29.7486 27.3889 27.7255 29.1233 25.1298C30.8577 22.5341 31.7835 19.4823 31.7835 16.3605C31.7835 12.1742 30.1205 8.15942 27.1604 5.19929C24.2002 2.23916 20.1854 0.576172 15.9992 0.576172ZM23.7532 11.3884L21.1685 23.6015C20.9712 24.4697 20.4582 24.667 19.7282 24.2724L15.7821 21.3523L13.8091 23.1872C13.7162 23.3086 13.5968 23.4072 13.46 23.4756C13.3233 23.544 13.1728 23.5803 13.0199 23.5818L13.2961 19.6357L20.5963 13.026C20.9318 12.7498 20.5963 12.592 20.1228 12.8682L11.1652 18.4914L7.21914 17.2681C6.37073 17.0116 6.351 16.4197 7.39671 16.0251L22.6088 10.1059C23.3586 9.88891 23.99 10.323 23.7532 11.3884Z"/>
</svg>
