<svg xmlns="http://www.w3.org/2000/svg" width="12" height="12" viewBox="0 0 12 12" fill="none" >
<path d="M11.4605 10.6645C11.5127 10.7168 11.5542 10.7788 11.5825 10.8471C11.6108 10.9154 11.6253 10.9886 11.6253 11.0625C11.6253 11.1364 11.6108 11.2096 11.5825 11.2779C11.5542 11.3462 11.5127 11.4082 11.4605 11.4605C11.4082 11.5127 11.3462 11.5542 11.2779 11.5825C11.2096 11.6108 11.1364 11.6253 11.0625 11.6253C10.9886 11.6253 10.9154 11.6108 10.8471 11.5825C10.7788 11.5542 10.7168 11.5127 10.6645 11.4605L6 6.79524L1.33547 11.4605C1.22992 11.566 1.08677 11.6253 0.9375 11.6253C0.788233 11.6253 0.645079 11.566 0.539531 11.4605C0.433983 11.3549 0.374687 11.2118 0.374687 11.0625C0.374687 10.9132 0.433983 10.7701 0.539531 10.6645L5.20477 6.00001L0.539531 1.33548C0.433983 1.22993 0.374687 1.08677 0.374687 0.937508C0.374687 0.78824 0.433983 0.645087 0.539531 0.539539C0.645079 0.433991 0.788233 0.374695 0.9375 0.374695C1.08677 0.374695 1.22992 0.433991 1.33547 0.539539L6 5.20477L10.6645 0.539539C10.7701 0.433991 10.9132 0.374695 11.0625 0.374695C11.2118 0.374695 11.3549 0.433991 11.4605 0.539539C11.566 0.645087 11.6253 0.78824 11.6253 0.937508C11.6253 1.08677 11.566 1.22993 11.4605 1.33548L6.79523 6.00001L11.4605 10.6645Z" fill="black" stroke="none"/>
</svg>

