<svg xmlns="http://www.w3.org/2000/svg" width="19" height="22" viewBox="0 0 19 22" fill="none">
    <path d="M1 21V19.75C1 17.4294 1.89553 15.2038 3.48959 13.5628C5.08365 11.9219 7.24566 11 9.5 11M9.5 11C11.7543 11 13.9163 11.9219 15.5104 13.5628C17.1045 15.2038 18 17.4294 18 19.75V21M9.5 11C10.7882 11 12.0236 10.4732 12.9345 9.53553C13.8454 8.59785 14.3571 7.32608 14.3571 6C14.3571 4.67392 13.8454 3.40215 12.9345 2.46447C12.0236 1.52678 10.7882 1 9.5 1C8.21181 1 6.97637 1.52678 6.06548 2.46447C5.15459 3.40215 4.64286 4.67392 4.64286 6C4.64286 7.32608 5.15459 8.59785 6.06548 9.53553C6.97637 10.4732 8.21181 11 9.5 11Z" stroke="#353638" stroke-width="1.82143" fill="none" stroke-linecap="round" stroke-linejoin="round"/>
</svg>
