<svg xmlns="http://www.w3.org/2000/svg" width="548" height="136" viewBox="0 0 548 136" fill="none">
    <path d="M158.016 7.41086H173.588C181.051 7.41086 186.651 8.93364 190.385 11.9714C194.119 15.0131 195.985 19.5502 195.985 25.5827C195.985 30.3385 194.693 34.1845 192.111 37.1247C189.53 40.0648 185.683 42.0444 180.567 43.0674L196.06 64.0779H185.093L165.152 35.7815H172.744C177.653 35.7815 181.258 34.9771 183.558 33.3645C185.859 31.752 187.011 29.2101 187.011 25.735C187.011 22.2599 185.886 19.679 183.636 18.1445C181.387 16.61 177.731 15.8447 172.67 15.8447H166.917V64.0779H158.02V7.41086H158.016Z" fill="#A1FDB0"/>
    <path d="M244.381 51.1228C243.663 53.1688 242.643 55.0469 241.312 56.7571C239.984 58.4712 238.422 59.9393 236.633 61.1692C234.844 62.3953 232.887 63.3519 230.767 64.0469C228.646 64.738 226.404 65.0816 224.053 65.0816C220.882 65.0816 217.902 64.5194 215.118 63.3948C212.329 62.2703 209.915 60.7085 207.869 58.7172C205.823 56.7219 204.225 54.3831 203.077 51.7006C201.925 49.0143 201.351 46.1171 201.351 42.9974C201.351 39.8776 201.913 36.9648 203.038 34.255C204.163 31.5453 205.725 29.1947 207.717 27.1995C209.712 25.2081 212.063 23.6346 214.774 22.4828C217.484 21.3348 220.398 20.7608 223.518 20.7608C226.639 20.7608 229.54 21.3348 232.224 22.4828C234.907 23.6346 237.234 25.2081 239.203 27.1995C241.171 29.1947 242.718 31.5687 243.842 34.3331C244.967 37.0937 245.529 40.0338 245.529 43.1496C245.529 43.8642 245.502 44.4655 245.455 44.9496C245.405 45.4377 245.303 45.9844 245.147 46.5974H210.556C210.81 48.1319 211.321 49.5492 212.091 50.8534C212.856 52.1575 213.829 53.2703 215.004 54.1918C216.18 55.1093 217.523 55.8278 219.031 56.3393C220.538 56.8508 222.136 57.1046 223.823 57.1046C226.326 57.1046 228.49 56.5931 230.306 55.5701C232.122 54.5471 233.669 53.0672 234.946 51.1228H244.381ZM236.863 38.8546C236.098 35.6334 234.563 33.1422 232.263 31.3774C229.962 29.6125 227.072 28.734 223.596 28.734C221.909 28.734 220.347 28.9643 218.918 29.4251C217.484 29.8858 216.207 30.5496 215.082 31.4203C213.958 32.291 212.997 33.3492 212.204 34.6025C211.411 35.8559 210.81 37.2733 210.404 38.8585H236.863V38.8546Z" fill="#A1FDB0"/>
    <path d="M257.801 50.9705C258.156 53.0672 258.863 54.6135 259.91 55.6091C260.956 56.6048 262.378 57.1046 264.167 57.1046C265.752 57.1046 267.057 56.6165 268.08 55.6482C269.103 54.6759 269.615 53.4226 269.615 51.892C269.615 51.0252 269.408 50.256 269.002 49.5922C268.592 48.9284 268.029 48.3662 267.315 47.9054C266.596 47.4447 265.791 47.0386 264.897 46.6794C264.003 46.3241 263.069 45.9648 262.097 45.6056C260 44.8911 258.223 44.1219 256.766 43.3058C255.309 42.4898 254.122 41.5956 253.2 40.6234C252.279 39.6511 251.615 38.5657 251.205 37.3631C250.794 36.1644 250.591 34.8212 250.591 33.3375C250.591 31.5492 250.923 29.8858 251.587 28.3513C252.251 26.8168 253.185 25.4893 254.387 24.3648C255.59 23.2403 257.008 22.3578 258.644 21.7214C260.281 21.081 262.046 20.7608 263.936 20.7608C265.827 20.7608 267.565 21.0654 269.15 21.6784C270.736 22.2914 272.114 23.1348 273.294 24.2086C274.469 25.2823 275.391 26.5747 276.055 28.0819C276.719 29.5891 277.102 31.2407 277.203 33.029H268.611C268.408 31.6507 267.908 30.5886 267.115 29.8468C266.323 29.1088 265.26 28.734 263.932 28.734C262.605 28.734 261.503 29.1439 260.632 29.96C259.761 30.78 259.328 31.7756 259.328 32.9509C259.328 33.7709 259.57 34.4815 260.058 35.0984C260.542 35.7114 261.171 36.2503 261.937 36.7071C262.702 37.1678 263.55 37.5778 264.467 37.9331C265.385 38.2885 266.307 38.6243 267.229 38.9288C271.165 40.2095 274.005 41.8065 275.743 43.7236C277.481 45.6408 278.351 48.0811 278.351 51.0447C278.351 53.0907 277.98 54.9571 277.238 56.6438C276.496 58.3306 275.485 59.8026 274.208 61.056C272.927 62.3094 271.408 63.2933 269.642 64.0079C267.877 64.7224 265.975 65.0816 263.929 65.0816C259.582 65.0816 256.09 63.8439 253.458 61.3645C250.826 58.8851 249.353 55.4217 249.049 50.9744H257.793L257.801 50.9705Z" fill="#A1FDB0"/>
    <path d="M287.408 29.6514H281.12V21.7525H287.408V7.41095H296.153V21.7525H303.362V29.6514H296.153V64.0819H287.408V29.6514Z" fill="#A1FDB0"/>
    <path d="M308.423 34.1377C309.497 31.4045 311.005 29.05 312.95 27.0821C314.891 25.1142 317.207 23.568 319.89 22.4435C322.577 21.3189 325.475 20.7567 328.595 20.7567C331.716 20.7567 334.668 21.3307 336.992 22.4786C339.32 23.6305 341.429 25.4851 343.319 28.0387V21.7524H351.45V64.0818H343.319V57.9477C341.222 60.5052 339.035 62.3287 336.762 63.4297C334.485 64.5269 331.763 65.0775 328.591 65.0775C325.42 65.0775 322.507 64.5269 319.847 63.4297C317.187 62.3326 314.887 60.7981 312.946 58.8302C311.001 56.8622 309.494 54.5351 308.42 51.8527C307.346 49.1663 306.807 46.2418 306.807 43.0713C306.807 39.9008 307.342 36.8748 308.42 34.1377H308.423ZM316.59 48.7056C317.281 50.4197 318.25 51.9035 319.503 53.1529C320.757 54.4063 322.237 55.3785 323.952 56.0657C325.662 56.7568 327.517 57.1004 329.513 57.1004C331.509 57.1004 333.337 56.7529 334.996 56.0657C336.656 55.3746 338.101 54.4063 339.331 53.1529C340.558 51.9035 341.503 50.4041 342.171 48.6666C342.835 46.929 343.167 45.0353 343.167 42.9893C343.167 40.9433 342.823 39.0418 342.132 37.2769C341.44 35.5121 340.468 34.0088 339.218 32.7554C337.964 31.5021 336.484 30.5181 334.77 29.8036C333.055 29.0891 331.177 28.7298 329.134 28.7298C327.092 28.7298 325.401 29.1008 323.764 29.8426C322.128 30.5845 320.698 31.5958 319.468 32.8726C318.242 34.1494 317.281 35.6721 316.59 37.4331C315.899 39.198 315.555 41.1034 315.555 43.1455C315.555 45.1876 315.899 46.9915 316.59 48.7056Z" fill="#A1FDB0"/>
    <path d="M389.419 59.174C387.677 61.3216 385.853 62.8443 383.936 63.7346C382.018 64.6287 379.652 65.0778 376.84 65.0778C371.267 65.0778 367.084 63.3519 364.299 59.9042C361.511 56.4526 360.12 51.3298 360.12 44.528V21.7527H368.787V43.1458C368.787 48.0031 369.552 51.5445 371.087 53.7662C372.622 55.9879 375.024 57.1007 378.296 57.1007C381.979 57.1007 384.674 55.9255 386.389 53.5749C388.099 51.2244 388.958 47.4681 388.958 42.3024V21.7527H397.625V64.0821H389.419V59.174Z" fill="#A1FDB0"/>
    <path d="M406.366 21.7524H414.497V26.5081C415.161 25.4851 415.825 24.6027 416.492 23.8647C417.156 23.1229 417.898 22.5372 418.719 22.0999C419.535 21.6664 420.456 21.3463 421.48 21.1393C422.503 20.9363 423.706 20.8074 425.085 20.7567V29.1906C421.71 29.3428 419.191 30.3307 417.531 32.1424C415.871 33.958 415.04 36.6288 415.04 40.1546V64.0779H406.369V21.7485L406.366 21.7524Z" fill="#A1FDB0"/>
    <path d="M430.681 34.1377C431.755 31.4045 433.262 29.05 435.203 27.0821C437.148 25.1142 439.46 23.568 442.147 22.4435C444.834 21.3189 447.732 20.7567 450.853 20.7567C453.973 20.7567 456.926 21.3307 459.253 22.4786C461.577 23.6305 463.69 25.4851 465.58 28.0387V21.7524H473.712V64.0818H465.58V57.9477C463.483 60.5052 461.296 62.3287 459.023 63.4297C456.746 64.5269 454.024 65.0775 450.857 65.0775C447.689 65.0775 444.772 64.5269 442.112 63.4297C439.453 62.3326 437.152 60.7981 435.207 58.8302C433.262 56.8622 431.759 54.5351 430.685 51.8527C429.611 49.1663 429.072 46.2418 429.072 43.0713C429.072 39.9008 429.611 36.8748 430.685 34.1377H430.681ZM438.847 48.7056C439.539 50.4197 440.507 51.9035 441.761 53.1529C443.014 54.4063 444.495 55.3785 446.209 56.0657C447.92 56.7568 449.775 57.1004 451.771 57.1004C453.766 57.1004 455.594 56.7529 457.254 56.0657C458.914 55.3746 460.359 54.4063 461.589 53.1529C462.815 51.9035 463.76 50.4041 464.428 48.6666C465.096 46.929 465.424 45.0353 465.424 42.9893C465.424 40.9433 465.08 39.0418 464.389 37.2769C463.698 35.5121 462.725 34.0088 461.476 32.7554C460.222 31.5021 458.738 30.5181 457.027 29.8036C455.313 29.0891 453.434 28.7298 451.392 28.7298C449.349 28.7298 447.658 29.1008 446.022 29.8426C444.385 30.5845 442.952 31.5958 441.726 32.8726C440.499 34.1494 439.539 35.6721 438.847 37.4331C438.156 39.1941 437.812 41.1034 437.812 43.1455C437.812 45.1876 438.16 46.9915 438.847 48.7056Z" fill="#A1FDB0"/>
    <path d="M482.452 21.7524H490.661V26.2778C492.501 24.3333 494.391 22.9276 496.336 22.0608C498.281 21.194 500.531 20.7567 503.085 20.7567C508.81 20.7567 513.056 22.4552 515.817 25.8561C518.578 29.2569 519.956 34.4813 519.956 41.5368V64.0818H511.29V42.9151C511.29 37.9563 510.509 34.3524 508.951 32.1034C507.393 29.8543 504.924 28.7298 501.55 28.7298C498.176 28.7298 495.399 29.8934 493.688 32.2205C491.974 34.5476 491.118 38.1633 491.118 43.0713V64.0818H482.448V21.7524H482.452Z" fill="#A1FDB0"/>
    <path d="M531.543 29.6514H525.255V21.7525H531.543V7.41095H540.288V21.7525H547.497V29.6514H540.288V64.0819H531.543V29.6514Z" fill="#A1FDB0"/>
    <path d="M158.016 71.2781H166.913V119.511H186.241V127.945H158.016V71.2781Z" fill="white"/>
    <path d="M191.607 98.0009C192.681 95.2677 194.189 92.9133 196.134 90.9454C198.075 88.9775 200.391 87.4313 203.074 86.3067C205.761 85.1822 208.659 84.62 211.779 84.62C214.899 84.62 217.852 85.1939 220.176 86.3419C222.503 87.4937 224.612 89.3484 226.503 91.902V85.6156H234.634V127.945H226.503V121.811C224.405 124.368 222.218 126.192 219.945 127.293C217.668 128.39 214.946 128.941 211.775 128.941C208.604 128.941 205.69 128.39 203.031 127.293C200.371 126.196 198.071 124.661 196.13 122.693C194.185 120.726 192.677 118.398 191.603 115.716C190.529 113.03 189.99 110.105 189.99 106.935C189.99 103.764 190.525 100.738 191.603 98.0009H191.607ZM199.774 112.569C200.465 114.283 201.433 115.767 202.687 117.016C203.941 118.27 205.421 119.242 207.135 119.929C208.846 120.62 210.701 120.964 212.697 120.964C214.692 120.964 216.52 120.616 218.18 119.929C219.84 119.238 221.285 118.27 222.515 117.016C223.741 115.767 224.687 114.267 225.354 112.53C226.018 110.792 226.35 108.899 226.35 106.853C226.35 104.807 226.007 102.905 225.315 101.14C224.624 99.3753 223.652 97.8721 222.402 96.6187C221.148 95.3654 219.668 94.3814 217.954 93.6669C216.239 92.9523 214.36 92.5931 212.318 92.5931C210.275 92.5931 208.584 92.964 206.948 93.7059C205.312 94.4478 203.882 95.4591 202.652 96.7359C201.426 98.0127 200.465 99.5354 199.774 101.296C199.082 103.061 198.739 104.967 198.739 107.009C198.739 109.051 199.082 110.855 199.774 112.569Z" fill="white"/>
    <path d="M243.382 71.2782H252.048V90.68C254.044 88.431 256.165 86.8067 258.414 85.811C260.664 84.8153 263.323 84.3155 266.389 84.3155C269.455 84.3155 272.306 84.8778 274.942 86.0023C277.575 87.1268 279.863 88.6887 281.808 90.68C283.749 92.6752 285.272 95.0258 286.37 97.7356C287.467 100.445 288.018 103.385 288.018 106.552C288.018 109.719 287.483 112.764 286.409 115.525C285.335 118.285 283.862 120.651 281.999 122.619C280.133 124.587 277.895 126.133 275.286 127.258C272.677 128.383 269.842 128.945 266.772 128.945C263.499 128.945 260.648 128.383 258.219 127.258C255.79 126.133 253.552 124.345 251.505 121.889V127.949H243.374V71.2821L243.382 71.2782ZM270.994 119.894C272.681 119.179 274.126 118.196 275.329 116.942C276.528 115.693 277.477 114.182 278.168 112.421C278.859 110.656 279.203 108.727 279.203 106.63C279.203 104.533 278.859 102.605 278.168 100.84C277.477 99.0748 276.52 97.556 275.294 96.2792C274.067 95.0024 272.583 94.0184 270.845 93.3273C269.107 92.6362 267.213 92.2926 265.171 92.2926C263.128 92.2926 261.425 92.6518 259.762 93.3663C258.098 94.0809 256.657 95.0922 255.427 96.3963C254.2 97.7004 253.24 99.2193 252.548 100.957C251.857 102.698 251.513 104.615 251.513 106.708C251.513 108.801 251.869 110.644 252.587 112.382C253.302 114.123 254.286 115.63 255.54 116.907C256.794 118.188 258.262 119.183 259.949 119.898C261.636 120.612 263.476 120.972 265.471 120.972C267.467 120.972 269.307 120.612 270.994 119.898V119.894Z" fill="white"/>
    <path d="M300.445 114.834C300.8 116.93 301.507 118.477 302.554 119.472C303.6 120.468 305.022 120.968 306.811 120.968C308.396 120.968 309.701 120.48 310.724 119.511C311.747 118.539 312.259 117.286 312.259 115.755C312.259 114.888 312.052 114.119 311.646 113.455C311.235 112.791 310.673 112.229 309.958 111.768C309.24 111.308 308.435 110.902 307.541 110.542C306.647 110.187 305.713 109.828 304.741 109.469C302.643 108.754 300.866 107.985 299.41 107.169C297.953 106.353 296.766 105.459 295.844 104.486C294.922 103.514 294.258 102.429 293.848 101.226C293.438 100.027 293.235 98.6843 293.235 97.2005C293.235 95.4123 293.567 93.7489 294.231 92.2144C294.895 90.6799 295.828 89.3524 297.031 88.2279C298.234 87.1033 299.652 86.2209 301.288 85.5844C302.925 84.9441 304.69 84.6239 306.58 84.6239C308.47 84.6239 310.208 84.9285 311.794 85.5415C313.38 86.1545 314.758 86.9979 315.938 88.0717C317.113 89.1454 318.035 90.4378 318.699 91.945C319.363 93.4521 319.746 95.1038 319.847 96.8921H311.255C311.052 95.5138 310.552 94.4517 309.759 93.7099C308.966 92.9719 307.904 92.5971 306.576 92.5971C305.248 92.5971 304.147 93.007 303.276 93.8231C302.405 94.643 301.972 95.6387 301.972 96.814C301.972 97.634 302.214 98.3446 302.702 98.9615C303.186 99.5745 303.815 100.113 304.581 100.57C305.346 101.031 306.193 101.441 307.111 101.796C308.029 102.152 308.951 102.487 309.872 102.792C313.809 104.073 316.648 105.67 318.386 107.587C320.124 109.504 320.995 111.944 320.995 114.908C320.995 116.954 320.624 118.82 319.882 120.507C319.14 122.194 318.129 123.666 316.852 124.919C315.571 126.172 314.051 127.156 312.286 127.871C310.521 128.585 308.619 128.945 306.572 128.945C302.226 128.945 298.734 127.707 296.102 125.228C293.469 122.748 291.997 119.285 291.692 114.837H300.437L300.445 114.834Z" fill="white"/>
    <path d="M20.2765 58.4277H35.3751C42.6119 58.4277 48.0445 59.9036 51.6648 62.8516C55.2852 65.7995 57.0934 70.2 57.0934 76.0491C57.0934 80.6603 55.8398 84.3892 53.3364 87.2395C50.833 90.0938 47.0993 92.0109 42.1433 93.0027L57.1676 113.377H46.5291L27.1892 85.9354H34.551C39.3118 85.9354 42.8072 85.1545 45.0372 83.5927C47.2712 82.0308 48.3842 79.5671 48.3842 76.1935C48.3842 72.82 47.2946 70.3171 45.1114 68.8334C42.9283 67.3457 39.386 66.6039 34.4729 66.6039H28.8959V113.377H20.2687V58.4238L20.2765 58.4277Z" fill="url(#paint0_linear_377_6959)"/>
    <path d="M65.2753 58.4278H73.9025V105.201H92.6449V113.381H65.2714V58.4278H65.2753Z" fill="url(#paint1_linear_377_6959)"/>
    <path d="M88.0879 25.6882L92.0598 21.9008C92.3644 21.6197 92.6144 21.3581 92.8175 21.1277C93.0205 20.8934 93.1768 20.6826 93.2939 20.4912C93.4111 20.2999 93.4931 20.1086 93.5439 19.9212C93.5946 19.7338 93.6181 19.5346 93.6181 19.3238C93.6181 19.0426 93.5712 18.781 93.4814 18.5507C93.3916 18.3164 93.2588 18.1134 93.0869 17.9377C92.9151 17.762 92.7159 17.6253 92.4894 17.5277C92.2629 17.434 92.0129 17.3871 91.7395 17.3871C91.1342 17.3871 90.6538 17.6019 90.2984 18.0314C89.9469 18.4609 89.7673 19.0505 89.7673 19.7962H88.0684C88.0684 19.1832 88.1543 18.6288 88.3262 18.1368C88.498 17.6448 88.7401 17.2309 89.0526 16.8873C89.365 16.5437 89.7517 16.2782 90.2047 16.0908C90.6577 15.9034 91.1654 15.8136 91.72 15.8136C92.2433 15.8136 92.7276 15.8995 93.1689 16.0791C93.6103 16.2548 93.9891 16.5008 94.3054 16.821C94.6218 17.1411 94.8756 17.5199 95.0631 17.9572C95.2506 18.3945 95.3443 18.8669 95.3443 19.3745C95.3443 19.7064 95.3091 20.0149 95.2389 20.296C95.1686 20.5771 95.0514 20.8661 94.8835 21.1511C94.7155 21.44 94.4968 21.7368 94.2234 22.0453C93.95 22.3537 93.6142 22.6973 93.208 23.0683L90.482 25.5984H95.2857V27.2032H88.0879V25.6882Z" fill="white"/>
    <path d="M96.4811 19.7454C96.4811 19.1402 96.5671 18.5936 96.7389 18.1016C96.9107 17.6096 97.1568 17.1996 97.4809 16.8599C97.8051 16.5202 98.1995 16.2625 98.6604 16.0829C99.1212 15.9033 99.6524 15.8096 100.238 15.8096C100.824 15.8096 101.332 15.8955 101.796 16.0751C102.261 16.2508 102.656 16.5046 102.98 16.8404C103.304 17.1723 103.55 17.5784 103.722 18.0586C103.894 18.5389 103.98 19.0816 103.98 19.6868V23.3532C103.98 24.6574 103.667 25.6569 103.038 26.3559C102.414 27.0509 101.507 27.4023 100.324 27.4023C99.1408 27.4023 98.1566 27.047 97.4809 26.3402C96.8092 25.6335 96.4733 24.6378 96.4733 23.3571V19.7532L96.4811 19.7454ZM98.7151 25.1767C99.0627 25.6062 99.5821 25.8209 100.269 25.8209C100.957 25.8209 101.461 25.614 101.785 25.2001C102.109 24.7862 102.269 24.1459 102.269 23.2751V19.8352C102.269 19.027 102.101 18.4139 101.761 18.004C101.422 17.5901 100.922 17.3832 100.254 17.3832C99.586 17.3832 99.0783 17.594 98.7229 18.0118C98.3675 18.4296 98.1917 19.0387 98.1917 19.8352V23.2439C98.1917 24.1029 98.3675 24.7472 98.7151 25.1767Z" fill="white"/>
    <path d="M104.998 25.6881L108.97 21.9007C109.275 21.6196 109.525 21.358 109.728 21.1276C109.931 20.8933 110.087 20.6825 110.204 20.4911C110.321 20.2998 110.403 20.1085 110.454 19.9211C110.505 19.7337 110.528 19.5345 110.528 19.3237C110.528 19.0426 110.481 18.781 110.392 18.5506C110.302 18.3163 110.169 18.1133 109.997 17.9376C109.825 17.7619 109.626 17.6252 109.4 17.5276C109.173 17.4339 108.923 17.387 108.65 17.387C108.044 17.387 107.564 17.6018 107.209 18.0313C106.857 18.4608 106.678 19.0504 106.678 19.7961H104.979C104.979 19.1831 105.065 18.6287 105.236 18.1367C105.408 17.6447 105.65 17.2308 105.963 16.8872C106.275 16.5436 106.662 16.2781 107.115 16.0907C107.568 15.9033 108.076 15.8135 108.63 15.8135C109.154 15.8135 109.638 15.8994 110.079 16.079C110.521 16.2547 110.899 16.5007 111.216 16.8209C111.532 17.141 111.786 17.5198 111.973 17.9571C112.161 18.3944 112.255 18.8668 112.255 19.3744C112.255 19.7063 112.219 20.0148 112.149 20.2959C112.079 20.577 111.962 20.866 111.794 21.151C111.626 21.44 111.407 21.7367 111.134 22.0452C110.86 22.3536 110.524 22.6972 110.118 23.0682L107.392 25.5983H112.196V27.2031H104.998V25.6881Z" fill="white"/>
    <path d="M114.922 23.7907C114.973 24.1148 115.063 24.3959 115.188 24.6458C115.313 24.8918 115.469 25.1027 115.649 25.2823C115.832 25.4619 116.035 25.5946 116.27 25.6844C116.504 25.7742 116.762 25.8211 117.043 25.8211C117.347 25.8211 117.629 25.7625 117.89 25.6454C118.152 25.5322 118.378 25.3682 118.566 25.1612C118.753 24.9543 118.898 24.7083 119.003 24.4194C119.109 24.1304 119.163 23.822 119.163 23.4862C119.163 23.1504 119.113 22.8458 119.003 22.5725C118.898 22.2953 118.75 22.0532 118.566 21.8463C118.382 21.6393 118.156 21.4753 117.898 21.3621C117.64 21.245 117.359 21.1864 117.058 21.1864C116.695 21.1864 116.375 21.2645 116.094 21.4206C115.813 21.5768 115.535 21.8267 115.254 22.1703L113.77 21.7447L114.801 16.0011H119.863V17.6098H116.106L115.68 20.0033C115.992 19.8627 116.266 19.7612 116.496 19.7065C116.726 19.6519 116.992 19.6246 117.285 19.6246C117.8 19.6246 118.277 19.7222 118.718 19.9135C119.16 20.1048 119.538 20.3703 119.863 20.7178C120.187 21.0653 120.441 21.4675 120.62 21.9361C120.804 22.4046 120.894 22.9122 120.894 23.4588C120.894 24.0055 120.796 24.5482 120.605 25.0246C120.413 25.5048 120.148 25.9226 119.808 26.274C119.468 26.6293 119.066 26.9066 118.601 27.1018C118.136 27.3009 117.636 27.3985 117.101 27.3985C116.566 27.3985 116.09 27.3087 115.637 27.133C115.188 26.9534 114.789 26.7074 114.446 26.3912C114.102 26.0749 113.821 25.6922 113.606 25.2549C113.391 24.8176 113.258 24.3296 113.219 23.7946H114.914L114.922 23.7907Z" fill="white"/>
    <path d="M136.316 135.957H0.729858V0.40213H136.316V135.957ZM8.38069 128.308H128.665V8.05119H8.38069V128.308Z" fill="url(#paint2_linear_377_6959)"/>
    <defs>
        <linearGradient id="paint0_linear_377_6959" x1="38.7182" y1="58.4238" x2="38.7182" y2="113.377" gradientUnits="userSpaceOnUse">
            <stop stop-color="#D9F9AB"/>
            <stop offset="0.461538" stop-color="#7BE19F"/>
            <stop offset="1" stop-color="#DFFAB1"/>
        </linearGradient>
        <linearGradient id="paint1_linear_377_6959" x1="78.9582" y1="58.4278" x2="78.9582" y2="113.381" gradientUnits="userSpaceOnUse">
            <stop stop-color="#D9F9AB"/>
            <stop offset="0.461538" stop-color="#7BE19F"/>
            <stop offset="1" stop-color="#DFFAB1"/>
        </linearGradient>
        <linearGradient id="paint2_linear_377_6959" x1="68.5231" y1="0.40213" x2="68.5231" y2="135.957" gradientUnits="userSpaceOnUse">
            <stop stop-color="#D9F9AB"/>
            <stop offset="0.461538" stop-color="#7BE19F"/>
            <stop offset="1" stop-color="#DFFAB1"/>
        </linearGradient>
    </defs>
</svg>
