<svg xmlns="http://www.w3.org/2000/svg" width="32" height="32" viewBox="0 0 32 32" fill="none">
    <path d="M15.9956 0.0172138C12.9401 0.0172138 10.7454 0.0525977 9.4113 0.123365C8.22798 0.167173 7.05575 0.368333 5.92551 0.721544C4.77363 1.13181 3.73076 1.79454 2.85572 2.65809C1.98069 3.52165 1.33517 4.56452 0.919174 5.72645C0.565963 6.85668 0.364803 8.02891 0.320995 9.21224C0.249271 10.552 0.214844 12.7411 0.214844 15.7965C0.214844 18.852 0.250228 21.0467 0.320995 22.3808C0.36403 23.5642 0.564857 24.7333 0.919174 25.8666C1.33091 27.0199 1.99216 28.0681 2.85572 28.9364C3.71067 29.797 4.76358 30.4426 5.92551 30.8012C7.04584 31.2028 8.22068 31.428 9.4113 31.4697C10.7497 31.5414 12.9401 31.5758 15.9956 31.5758C19.051 31.5758 21.2458 31.5404 22.5798 31.4697C23.7632 31.4258 24.9354 31.2247 26.0656 30.8715C27.2189 30.4597 28.2671 29.7985 29.1354 28.9349C29.999 28.0666 30.6602 27.0184 31.072 25.8651C31.4263 24.7348 31.6271 23.5556 31.6702 22.3793C31.7419 21.041 31.7763 18.8505 31.7763 15.7951C31.7763 12.7396 31.7533 10.5592 31.706 9.23949C31.6431 8.04133 31.4301 6.8558 31.072 5.71067C30.6602 4.55736 29.999 3.50916 29.1354 2.64088C28.2671 1.77731 27.2189 1.11606 26.0656 0.70433C24.9354 0.351119 23.7632 0.149959 22.5798 0.106152C21.2415 0.0344276 19.051 0 15.9956 0V0.0172138ZM14.8681 28.7068C12.9889 28.7068 11.5401 28.6839 10.5072 28.6365C9.22098 28.6149 7.94305 28.4254 6.70587 28.0728C6.01712 27.8059 5.39164 27.3983 4.86947 26.8758C4.34729 26.3534 3.93991 25.7278 3.67338 25.0389C3.32077 23.8017 3.13125 22.5238 3.10963 21.2375C3.06229 20.2047 3.0379 18.7415 3.0379 16.8767V14.6245C3.0379 12.7454 3.06229 11.2965 3.10963 10.2637C3.12265 8.97676 3.31234 7.69768 3.67338 6.46234C3.92708 5.76708 4.32969 5.13569 4.85302 4.61236C5.37635 4.08903 6.00775 3.68642 6.703 3.43271C7.94018 3.08011 9.21811 2.89059 10.5044 2.86896C11.5372 2.82162 13.0004 2.79724 14.8652 2.79724H17.1173C18.9965 2.79724 20.4453 2.82162 21.4782 2.86896C22.7651 2.88198 24.0442 3.07167 25.2795 3.43271C25.9751 3.68624 26.6067 4.08877 27.1303 4.61211C27.6539 5.13545 28.0567 5.76694 28.3106 6.46234C28.6706 7.69886 28.86 8.97268 28.8743 10.2637C28.9202 11.2497 28.9437 12.7033 28.9446 14.6245V16.8767C28.9446 18.7558 28.9202 20.2047 28.8743 21.2375C28.8514 22.5242 28.662 23.8052 28.3106 25.0389C28.0398 25.7257 27.6323 26.3504 27.1128 26.875C26.5908 27.3977 25.9654 27.8057 25.2767 28.0728C24.0406 28.4304 22.762 28.62 21.4753 28.6365C20.4903 28.6844 19.0367 28.7078 17.1145 28.7068H14.8623H14.8681ZM24.4504 5.32479C24.061 5.32436 23.6802 5.43964 23.3564 5.656C23.0326 5.87236 22.7803 6.18005 22.6317 6.54001C22.4831 6.89998 22.4448 7.29598 22.5216 7.67777C22.5984 8.05956 22.787 8.4099 23.0633 8.68435C23.2423 8.87175 23.458 9.02039 23.6968 9.12106C23.9357 9.22174 24.1927 9.2723 24.4518 9.26962C24.706 9.27441 24.9583 9.22464 25.1917 9.12368C25.425 9.02273 25.634 8.87291 25.8046 8.68435C26.1626 8.30573 26.3811 7.81653 26.4243 7.29721C26.4172 6.77604 26.2069 6.27823 25.8382 5.90981C25.4695 5.54139 24.9716 5.33148 24.4504 5.32479ZM16.0013 7.86383C14.6144 7.85448 13.251 8.22187 12.0565 8.92678C10.8606 9.62022 9.86663 10.6142 9.17318 11.8101C8.47648 13.008 8.10946 14.3691 8.10946 15.7549C8.10946 17.1407 8.47648 18.5018 9.17318 19.6997C9.86502 20.8969 10.8593 21.8912 12.0565 22.583C13.2544 23.2797 14.6155 23.6468 16.0013 23.6468C17.3871 23.6468 18.7482 23.2797 19.9461 22.583C21.1433 21.8912 22.1376 20.8969 22.8294 19.6997C23.5261 18.5018 23.8932 17.1407 23.8932 15.7549C23.8932 14.3691 23.5261 13.008 22.8294 11.8101C22.136 10.6142 21.1421 9.62022 19.9461 8.92678C18.7517 8.22187 17.3882 7.85448 16.0013 7.86383ZM16.0013 20.8315C15.3348 20.8311 14.6749 20.6991 14.0595 20.4431C13.4441 20.1871 12.8853 19.8121 12.4151 19.3397C11.4622 18.3892 10.9256 17.0993 10.9232 15.7535C10.9237 15.0869 11.0556 14.427 11.3117 13.8116C11.5677 13.1962 11.9427 12.6374 12.4151 12.1673C13.3656 11.2144 14.6554 10.6778 16.0013 10.6754C16.6678 10.6758 17.3277 10.8078 17.9431 11.0638C18.5585 11.3198 19.1174 11.6948 19.5875 12.1673C20.5404 13.1177 21.077 14.4076 21.0794 15.7535C21.079 16.42 20.947 17.0799 20.691 17.6953C20.435 18.3107 20.06 18.8695 19.5875 19.3397C18.637 20.2926 17.3472 20.8291 16.0013 20.8315Z"/>
</svg>
