<svg xmlns="http://www.w3.org/2000/svg" width="559" height="51" viewBox="0 0 559 51" fill="none">
    <path d="M0.686 50V1.226H14.744C20.816 1.226 25.414 2.546 28.538 5.186C31.662 7.826 33.224 11.72 33.224 16.868C33.224 20.828 32.168 24.062 30.056 26.57C27.944 29.078 24.754 30.882 20.486 31.982L33.686 50H22.532L5.042 24.524H14.15C17.67 24.524 20.2 23.952 21.74 22.808C23.324 21.62 24.116 19.728 24.116 17.132C24.116 14.536 23.302 12.688 21.674 11.588C20.09 10.444 17.45 9.872 13.754 9.872H9.728V50H0.686ZM40.518 50V1.226H66.72V9.872H49.56V21.356H65.994V30.002H49.56V41.354H66.72V50H40.518ZM71.6974 36.074H81.1354C81.3554 38.142 81.9934 39.682 83.0494 40.694C84.1494 41.662 85.7114 42.146 87.7354 42.146C88.7034 42.146 89.5834 42.014 90.3754 41.75C91.2114 41.442 91.9154 41.024 92.4874 40.496C93.0594 39.968 93.4994 39.352 93.8074 38.648C94.1594 37.9 94.3354 37.086 94.3354 36.206C94.3354 34.754 93.9834 33.566 93.2794 32.642C92.5754 31.674 91.6734 30.882 90.5734 30.266C89.5174 29.65 88.3734 29.144 87.1414 28.748C85.9094 28.308 84.7434 27.89 83.6434 27.494C82.0154 26.878 80.5634 26.13 79.2874 25.25C78.0114 24.37 76.9334 23.38 76.0534 22.28C75.2174 21.136 74.5794 19.904 74.1394 18.584C73.6994 17.22 73.4794 15.768 73.4794 14.228C73.4794 12.292 73.8314 10.488 74.5354 8.816C75.2834 7.1 76.2954 5.626 77.5714 4.394C78.8914 3.162 80.4094 2.194 82.1254 1.49C83.8414 0.741998 85.6894 0.367998 87.6694 0.367998C89.7374 0.367998 91.6294 0.697997 93.3454 1.358C95.0614 2.018 96.5354 2.964 97.7674 4.196C99.0434 5.384 100.055 6.836 100.803 8.552C101.551 10.268 101.991 12.16 102.123 14.228H92.7514C92.6194 12.556 92.1134 11.28 91.2334 10.4C90.3534 9.52 89.1434 9.08 87.6034 9.08C86.1074 9.08 84.8974 9.542 83.9734 10.466C83.0494 11.39 82.5874 12.578 82.5874 14.03C82.5874 14.778 82.6974 15.46 82.9174 16.076C83.1814 16.648 83.6214 17.176 84.2374 17.66C84.8534 18.144 85.6894 18.628 86.7454 19.112C87.8014 19.596 89.1214 20.102 90.7054 20.63C92.9054 21.378 94.7974 22.214 96.3814 23.138C97.9654 24.062 99.2634 25.118 100.275 26.306C101.331 27.494 102.101 28.836 102.585 30.332C103.069 31.784 103.311 33.412 103.311 35.216C103.311 37.416 102.915 39.484 102.123 41.42C101.331 43.312 100.231 44.962 98.8234 46.37C97.4154 47.778 95.7654 48.878 93.8734 49.67C91.9814 50.462 89.9354 50.858 87.7354 50.858C85.4914 50.858 83.4234 50.506 81.5314 49.802C79.6394 49.098 77.9894 48.108 76.5814 46.832C75.1734 45.512 74.0514 43.95 73.2154 42.146C72.3794 40.298 71.8734 38.274 71.6974 36.074ZM114.559 50V9.872H105.517V1.226H132.643V9.872H123.601V50H114.559ZM133.554 50L153.882 1.226H161.01L181.47 50H171.504L166.29 37.394H148.932L143.52 50H133.554ZM152.232 28.748H162.66L157.446 13.964L152.232 28.748ZM186.633 1.226H195.675V32.114C195.675 35.546 196.269 38.076 197.457 39.704C198.689 41.332 200.559 42.146 203.067 42.146C205.619 42.146 207.489 41.332 208.677 39.704C209.909 38.076 210.525 35.546 210.525 32.114V1.226H219.567V32.114C219.567 38.01 218.115 42.608 215.211 45.908C212.307 49.208 208.259 50.858 203.067 50.858C200.515 50.858 198.205 50.44 196.137 49.604C194.113 48.724 192.397 47.492 190.989 45.908C189.581 44.28 188.503 42.3 187.755 39.968C187.007 37.636 186.633 35.018 186.633 32.114V1.226ZM228.915 50V1.226H242.973C249.045 1.226 253.643 2.546 256.767 5.186C259.891 7.826 261.453 11.72 261.453 16.868C261.453 20.828 260.397 24.062 258.285 26.57C256.173 29.078 252.983 30.882 248.715 31.982L261.915 50H250.761L233.271 24.524H242.379C245.899 24.524 248.429 23.952 249.969 22.808C251.553 21.62 252.345 19.728 252.345 17.132C252.345 14.536 251.531 12.688 249.903 11.588C248.319 10.444 245.679 9.872 241.983 9.872H237.957V50H228.915ZM264.523 50L284.851 1.226H291.979L312.439 50H302.473L297.259 37.394H279.901L274.489 50H264.523ZM283.201 28.748H293.629L288.415 13.964L283.201 28.748ZM317.602 50V1.226H327.898L348.094 36.734V1.226H357.136V50H347.038L326.644 14.558V50H317.602ZM371.34 50V9.872H362.298V1.226H389.424V9.872H380.382V50H371.34ZM413.057 50V1.226H422.099V41.354H437.015V50H413.057ZM438.804 50L459.132 1.226H466.26L486.72 50H476.754L471.54 37.394H454.182L448.77 50H438.804ZM457.482 28.748H467.91L462.696 13.964L457.482 28.748ZM491.883 50V1.226H501.915C508.339 1.226 513.069 2.282 516.105 4.394C519.141 6.462 520.659 9.74 520.659 14.228C520.659 16.516 520.241 18.364 519.405 19.772C518.613 21.136 517.227 22.346 515.247 23.402C518.195 24.634 520.307 26.196 521.583 28.088C522.903 29.936 523.563 32.4 523.563 35.48C523.563 40.144 521.935 43.73 518.679 46.238C515.467 48.746 510.869 50 504.885 50H491.883ZM500.925 41.354H505.413C508.581 41.354 510.869 40.87 512.277 39.902C513.729 38.934 514.455 37.372 514.455 35.216C514.455 33.28 513.883 31.74 512.739 30.596C511.595 29.452 510.055 28.88 508.119 28.88H500.925V41.354ZM500.925 20.036H506.733C508.273 20.036 509.461 19.596 510.297 18.716C511.177 17.836 511.617 16.604 511.617 15.02C511.617 13.348 511.045 12.116 509.901 11.324C508.757 10.488 506.997 10.07 504.621 10.07H500.925V20.036ZM527.188 36.074H536.626C536.846 38.142 537.484 39.682 538.54 40.694C539.64 41.662 541.202 42.146 543.226 42.146C544.194 42.146 545.074 42.014 545.866 41.75C546.702 41.442 547.406 41.024 547.978 40.496C548.55 39.968 548.99 39.352 549.298 38.648C549.65 37.9 549.826 37.086 549.826 36.206C549.826 34.754 549.474 33.566 548.77 32.642C548.066 31.674 547.164 30.882 546.064 30.266C545.008 29.65 543.864 29.144 542.632 28.748C541.4 28.308 540.234 27.89 539.134 27.494C537.506 26.878 536.054 26.13 534.778 25.25C533.502 24.37 532.424 23.38 531.544 22.28C530.708 21.136 530.07 19.904 529.63 18.584C529.19 17.22 528.97 15.768 528.97 14.228C528.97 12.292 529.322 10.488 530.026 8.816C530.774 7.1 531.786 5.626 533.062 4.394C534.382 3.162 535.9 2.194 537.616 1.49C539.332 0.741998 541.18 0.367998 543.16 0.367998C545.228 0.367998 547.12 0.697997 548.836 1.358C550.552 2.018 552.026 2.964 553.258 4.196C554.534 5.384 555.546 6.836 556.294 8.552C557.042 10.268 557.482 12.16 557.614 14.228H548.242C548.11 12.556 547.604 11.28 546.724 10.4C545.844 9.52 544.634 9.08 543.094 9.08C541.598 9.08 540.388 9.542 539.464 10.466C538.54 11.39 538.078 12.578 538.078 14.03C538.078 14.778 538.188 15.46 538.408 16.076C538.672 16.648 539.112 17.176 539.728 17.66C540.344 18.144 541.18 18.628 542.236 19.112C543.292 19.596 544.612 20.102 546.196 20.63C548.396 21.378 550.288 22.214 551.872 23.138C553.456 24.062 554.754 25.118 555.766 26.306C556.822 27.494 557.592 28.836 558.076 30.332C558.56 31.784 558.802 33.412 558.802 35.216C558.802 37.416 558.406 39.484 557.614 41.42C556.822 43.312 555.722 44.962 554.314 46.37C552.906 47.778 551.256 48.878 549.364 49.67C547.472 50.462 545.426 50.858 543.226 50.858C540.982 50.858 538.914 50.506 537.022 49.802C535.13 49.098 533.48 48.108 532.072 46.832C530.664 45.512 529.542 43.95 528.706 42.146C527.87 40.298 527.364 38.274 527.188 36.074Z" fill="url(#paint0_linear_377_488)"/>
    <defs>
        <linearGradient id="paint0_linear_377_488" x1="38.1435" y1="-46.8585" x2="342.321" y2="246.494" gradientUnits="userSpaceOnUse">
            <stop stop-color="#D9F9AB"/>
            <stop offset="0.461538" stop-color="#54C57B"/>
            <stop offset="0.70935" stop-color="#64CB82"/>
            <stop offset="1" stop-color="#DFFAB1"/>
        </linearGradient>
    </defs>
</svg>
