<svg xmlns="http://www.w3.org/2000/svg" width="547" height="136" viewBox="0 0 547 136" fill="none">
    <path d="M157.286 7.00891H172.857C180.321 7.00891 185.921 8.53169 189.655 11.5694C193.388 14.6111 195.255 19.1482 195.255 25.1808C195.255 29.9366 193.962 33.7826 191.381 36.7227C188.799 39.6628 184.952 41.6425 179.836 42.6655L195.329 63.6759H184.363L164.421 35.3795H172.014C176.923 35.3795 180.528 34.5752 182.828 32.9626C185.128 31.35 186.28 28.8081 186.28 25.3331C186.28 21.858 185.156 19.2771 182.906 17.7426C180.656 16.2081 177.001 15.4428 171.939 15.4428H166.187V63.6759H157.29V7.00891H157.286Z" fill="#353638"/>
    <path d="M243.652 50.7207C242.933 52.7667 241.914 54.6448 240.582 56.355C239.254 58.0691 237.692 59.5372 235.903 60.7672C234.114 61.9932 232.158 62.9498 230.037 63.6448C227.916 64.3359 225.675 64.6795 223.324 64.6795C220.152 64.6795 217.172 64.1173 214.388 62.9928C211.599 61.8682 209.186 60.3064 207.139 58.3151C205.093 56.3199 203.495 53.981 202.347 51.2986C201.195 48.6122 200.621 45.715 200.621 42.5953C200.621 39.4755 201.183 36.5627 202.308 33.853C203.433 31.1432 204.995 28.7926 206.987 26.7974C208.983 24.8061 211.334 23.2325 214.044 22.0807C216.755 20.9327 219.668 20.3588 222.789 20.3588C225.909 20.3588 228.811 20.9327 231.494 22.0807C234.177 23.2325 236.505 24.8061 238.473 26.7974C240.441 28.7926 241.988 31.1666 243.113 33.9311C244.237 36.6916 244.8 39.6317 244.8 42.7476C244.8 43.4621 244.772 44.0634 244.726 44.5476C244.675 45.0357 244.573 45.5823 244.417 46.1953H209.826C210.08 47.7298 210.592 49.1472 211.361 50.4513C212.127 51.7554 213.099 52.8682 214.275 53.7897C215.45 54.7073 216.794 55.4257 218.301 55.9372C219.809 56.4487 221.406 56.7025 223.093 56.7025C225.597 56.7025 227.76 56.191 229.576 55.168C231.392 54.145 232.939 52.6652 234.216 50.7207H243.652ZM236.134 38.4526C235.368 35.2313 233.833 32.7402 231.533 30.9753C229.233 29.2104 226.343 28.3319 222.867 28.3319C221.179 28.3319 219.617 28.5623 218.188 29.023C216.755 29.4837 215.477 30.1475 214.353 31.0182C213.228 31.889 212.267 32.9471 211.474 34.2005C210.682 35.4538 210.08 36.8712 209.674 38.4565H236.134V38.4526Z" fill="#353638"/>
    <path d="M257.071 50.5684C257.427 52.6652 258.133 54.2114 259.18 55.2071C260.227 56.2027 261.648 56.7025 263.437 56.7025C265.023 56.7025 266.327 56.2144 267.35 55.2461C268.374 54.2739 268.885 53.0205 268.885 51.4899C268.885 50.6231 268.678 49.8539 268.272 49.1901C267.862 48.5263 267.3 47.9641 266.585 47.5033C265.866 47.0426 265.062 46.6365 264.167 46.2773C263.273 45.922 262.34 45.5628 261.367 45.2035C259.27 44.489 257.493 43.7198 256.036 42.9037C254.579 42.0877 253.392 41.1935 252.47 40.2213C251.549 39.2491 250.885 38.1636 250.475 36.961C250.065 35.7623 249.862 34.4191 249.862 32.9354C249.862 31.1471 250.194 29.4837 250.858 27.9492C251.521 26.4148 252.455 25.0872 253.658 23.9627C254.861 22.8382 256.278 21.9557 257.915 21.3193C259.551 20.6789 261.316 20.3588 263.207 20.3588C265.097 20.3588 266.835 20.6633 268.42 21.2764C270.006 21.8894 271.385 22.7327 272.564 23.8065C273.74 24.8803 274.661 26.1727 275.325 27.6798C275.989 29.187 276.372 30.8386 276.474 32.6269H267.882C267.678 31.2486 267.179 30.1866 266.386 29.4447C265.593 28.7067 264.531 28.3319 263.203 28.3319C261.875 28.3319 260.774 28.7419 259.903 29.5579C259.032 30.3779 258.598 31.3736 258.598 32.5488C258.598 33.3688 258.84 34.0794 259.329 34.6964C259.813 35.3094 260.442 35.8482 261.207 36.305C261.973 36.7658 262.82 37.1758 263.738 37.5311C264.656 37.8864 265.577 38.2222 266.499 38.5267C270.436 39.8074 273.275 41.4044 275.013 43.3215C276.751 45.2387 277.622 47.679 277.622 50.6426C277.622 52.6886 277.251 54.555 276.509 56.2418C275.767 57.9285 274.755 59.4006 273.478 60.6539C272.197 61.9073 270.678 62.8913 268.913 63.6058C267.147 64.3203 265.245 64.6795 263.199 64.6795C258.852 64.6795 255.361 63.4418 252.728 60.9624C250.096 58.483 248.624 55.0196 248.319 50.5723H257.063L257.071 50.5684Z" fill="#353638"/>
    <path d="M286.679 29.2494H280.391V21.3504H286.679V7.00891H295.424V21.3504H302.633V29.2494H295.424V63.6799H286.679V29.2494Z" fill="#353638"/>
    <path d="M307.694 33.7356C308.768 31.0024 310.276 28.6479 312.221 26.68C314.162 24.7121 316.478 23.1659 319.161 22.0414C321.848 20.9169 324.746 20.3546 327.866 20.3546C330.987 20.3546 333.939 20.9286 336.263 22.0765C338.591 23.2284 340.7 25.0831 342.59 27.6366V21.3503H350.721V63.6797H342.59V57.5456C340.493 60.1031 338.306 61.9266 336.033 63.0277C333.756 64.1249 331.034 64.6754 327.862 64.6754C324.691 64.6754 321.778 64.1249 319.118 63.0277C316.458 61.9305 314.158 60.396 312.217 58.4281C310.272 56.4602 308.765 54.1331 307.691 51.4506C306.617 48.7643 306.078 45.8398 306.078 42.6692C306.078 39.4987 306.613 36.4727 307.691 33.7356H307.694ZM315.861 48.3035C316.552 50.0176 317.521 51.5014 318.774 52.7508C320.028 54.0042 321.508 54.9764 323.223 55.6636C324.933 56.3547 326.788 56.6984 328.784 56.6984C330.78 56.6984 332.607 56.3508 334.267 55.6636C335.927 54.9725 337.372 54.0042 338.602 52.7508C339.829 51.5014 340.774 50.002 341.442 48.2645C342.106 46.527 342.438 44.6332 342.438 42.5872C342.438 40.5412 342.094 38.6397 341.403 36.8748C340.711 35.11 339.739 33.6067 338.489 32.3534C337.235 31.1 335.755 30.1161 334.041 29.4015C332.326 28.687 330.448 28.3278 328.405 28.3278C326.363 28.3278 324.672 28.6987 323.035 29.4406C321.399 30.1824 319.969 31.1937 318.739 32.4705C317.513 33.7473 316.552 35.2701 315.861 37.031C315.17 38.7959 314.826 40.7013 314.826 42.7434C314.826 44.7855 315.17 46.5894 315.861 48.3035Z" fill="#353638"/>
    <path d="M388.69 58.772C386.948 60.9195 385.124 62.4423 383.206 63.3325C381.289 64.2267 378.922 64.6757 376.11 64.6757C370.537 64.6757 366.354 62.9499 363.569 59.5021C360.781 56.0505 359.391 50.9277 359.391 44.1259V21.3506H368.057V42.7437C368.057 47.601 368.822 51.1425 370.357 53.3642C371.892 55.5859 374.294 56.6987 377.567 56.6987C381.25 56.6987 383.944 55.5234 385.659 53.1728C387.369 50.8223 388.229 47.0661 388.229 41.9003V21.3506H396.895V63.68H388.69V58.772Z" fill="#353638"/>
    <path d="M405.636 21.3503H413.767V26.1061C414.431 25.0831 415.095 24.2006 415.763 23.4627C416.427 22.7208 417.169 22.1351 417.989 21.6978C418.805 21.2644 419.727 20.9442 420.75 20.7373C421.773 20.5342 422.976 20.4054 424.355 20.3546V28.7885C420.98 28.9408 418.461 29.9286 416.802 31.7404C415.142 33.556 414.31 36.2267 414.31 39.7525V63.6758H405.64V21.3464L405.636 21.3503Z" fill="#353638"/>
    <path d="M429.951 33.7356C431.025 31.0024 432.533 28.6479 434.474 26.68C436.419 24.7121 438.731 23.1659 441.418 22.0414C444.105 20.9169 447.003 20.3546 450.123 20.3546C453.244 20.3546 456.196 20.9286 458.524 22.0765C460.847 23.2284 462.96 25.0831 464.851 27.6366V21.3503H472.982V63.6797H464.851V57.5456C462.753 60.1031 460.566 61.9266 458.293 63.0277C456.016 64.1249 453.294 64.6754 450.127 64.6754C446.96 64.6754 444.042 64.1249 441.383 63.0277C438.723 61.9305 436.423 60.396 434.478 58.4281C432.533 56.4602 431.029 54.1331 429.955 51.4506C428.881 48.7643 428.342 45.8398 428.342 42.6692C428.342 39.4987 428.881 36.4727 429.955 33.7356H429.951ZM438.118 48.3035C438.809 50.0176 439.777 51.5014 441.031 52.7508C442.285 54.0042 443.765 54.9764 445.479 55.6636C447.19 56.3547 449.045 56.6984 451.041 56.6984C453.037 56.6984 454.864 56.3508 456.524 55.6636C458.184 54.9725 459.629 54.0042 460.859 52.7508C462.086 51.5014 463.031 50.002 463.698 48.2645C464.366 46.527 464.694 44.6332 464.694 42.5872C464.694 40.5412 464.351 38.6397 463.659 36.8748C462.968 35.11 461.996 33.6067 460.746 32.3534C459.492 31.1 458.008 30.1161 456.298 29.4015C454.583 28.687 452.705 28.3278 450.662 28.3278C448.619 28.3278 446.928 28.6987 445.292 29.4406C443.656 30.1824 442.222 31.1937 440.996 32.4705C439.77 33.7473 438.809 35.2701 438.118 37.031C437.426 38.792 437.083 40.7013 437.083 42.7434C437.083 44.7855 437.43 46.5894 438.118 48.3035Z" fill="#353638"/>
    <path d="M481.722 21.3503H489.932V25.8757C491.771 23.9312 493.662 22.5256 495.606 21.6588C497.551 20.7919 499.801 20.3546 502.355 20.3546C508.081 20.3546 512.326 22.0531 515.087 25.454C517.848 28.8549 519.227 34.0792 519.227 41.1348V63.6797H510.561V42.5131C510.561 37.5542 509.779 33.9503 508.221 31.7013C506.663 29.4523 504.195 28.3278 500.82 28.3278C497.446 28.3278 494.669 29.4913 492.959 31.8185C491.244 34.1456 490.389 37.7612 490.389 42.6692V63.6797H481.719V21.3503H481.722Z" fill="#353638"/>
    <path d="M530.814 29.2494H524.526V21.3504H530.814V7.00891H539.559V21.3504H546.768V29.2494H539.559V63.6799H530.814V29.2494Z" fill="#353638"/>
    <path d="M157.286 70.876H166.183V119.109H185.511V127.543H157.286V70.876Z" fill="#353638"/>
    <path d="M190.877 97.5989C191.951 94.8657 193.459 92.5112 195.404 90.5433C197.345 88.5754 199.661 87.0292 202.344 85.9047C205.031 84.7802 207.929 84.2179 211.049 84.2179C214.17 84.2179 217.122 84.7919 219.446 85.9398C221.774 87.0917 223.883 88.9463 225.773 91.4999V85.2136H233.904V127.543H225.773V121.409C223.676 123.966 221.489 125.79 219.216 126.891C216.939 127.988 214.217 128.539 211.045 128.539C207.874 128.539 204.961 127.988 202.301 126.891C199.641 125.794 197.341 124.259 195.4 122.291C193.455 120.323 191.948 117.996 190.874 115.314C189.8 112.628 189.261 109.703 189.261 106.533C189.261 103.362 189.796 100.336 190.874 97.5989H190.877ZM199.044 112.167C199.735 113.881 200.704 115.365 201.957 116.614C203.211 117.867 204.691 118.84 206.406 119.527C208.116 120.218 209.971 120.562 211.967 120.562C213.963 120.562 215.791 120.214 217.45 119.527C219.11 118.836 220.555 117.867 221.785 116.614C223.012 115.365 223.957 113.865 224.625 112.128C225.289 110.39 225.621 108.497 225.621 106.451C225.621 104.405 225.277 102.503 224.586 100.738C223.894 98.9733 222.922 97.47 221.672 96.2167C220.419 94.9633 218.938 93.9793 217.224 93.2648C215.509 92.5503 213.631 92.191 211.588 92.191C209.546 92.191 207.855 92.562 206.218 93.3038C204.582 94.0457 203.152 95.057 201.922 96.3338C200.696 97.6106 199.735 99.1334 199.044 100.894C198.353 102.659 198.009 104.565 198.009 106.607C198.009 108.649 198.353 110.453 199.044 112.167Z" fill="#353638"/>
    <path d="M242.652 70.8761H251.319V90.2779C253.314 88.0289 255.435 86.4046 257.685 85.4089C259.934 84.4133 262.594 83.9135 265.66 83.9135C268.725 83.9135 271.576 84.4757 274.213 85.6002C276.845 86.7248 279.133 88.2866 281.078 90.2779C283.019 92.2731 284.543 94.6237 285.64 97.3335C286.737 100.043 287.288 102.983 287.288 106.15C287.288 109.317 286.753 112.362 285.679 115.123C284.605 117.883 283.133 120.249 281.27 122.217C279.403 124.185 277.165 125.731 274.556 126.856C271.947 127.98 269.112 128.543 266.042 128.543C262.77 128.543 259.919 127.98 257.489 126.856C255.06 125.731 252.822 123.943 250.776 121.487V127.547H242.645V70.88L242.652 70.8761ZM270.264 119.492C271.951 118.777 273.396 117.793 274.599 116.54C275.798 115.291 276.747 113.78 277.438 112.019C278.13 110.254 278.473 108.325 278.473 106.228C278.473 104.131 278.13 102.202 277.438 100.438C276.747 98.6727 275.79 97.1539 274.564 95.8771C273.338 94.6003 271.854 93.6163 270.116 92.9252C268.378 92.2341 266.484 91.8905 264.441 91.8905C262.399 91.8905 260.696 92.2497 259.032 92.9643C257.368 93.6788 255.927 94.6901 254.697 95.9942C253.471 97.2983 252.51 98.8172 251.819 100.555C251.127 102.296 250.784 104.213 250.784 106.306C250.784 108.399 251.139 110.242 251.858 111.98C252.572 113.721 253.556 115.228 254.81 116.505C256.064 117.786 257.532 118.781 259.219 119.496C260.907 120.21 262.746 120.57 264.742 120.57C266.737 120.57 268.577 120.21 270.264 119.496V119.492Z" fill="#353638"/>
    <path d="M299.716 114.432C300.071 116.528 300.778 118.074 301.825 119.07C302.871 120.066 304.293 120.566 306.082 120.566C307.667 120.566 308.972 120.078 309.995 119.109C311.018 118.137 311.53 116.884 311.53 115.353C311.53 114.486 311.323 113.717 310.917 113.053C310.506 112.389 309.944 111.827 309.229 111.366C308.511 110.906 307.706 110.5 306.812 110.14C305.918 109.785 304.984 109.426 304.012 109.067C301.914 108.352 300.137 107.583 298.681 106.767C297.224 105.951 296.037 105.057 295.115 104.084C294.193 103.112 293.529 102.027 293.119 100.824C292.709 99.6254 292.506 98.2822 292.506 96.7985C292.506 95.0102 292.838 93.3468 293.502 91.8123C294.166 90.2779 295.099 88.9503 296.302 87.8258C297.505 86.7013 298.923 85.8188 300.559 85.1824C302.196 84.542 303.961 84.2219 305.851 84.2219C307.741 84.2219 309.479 84.5264 311.065 85.1395C312.651 85.7525 314.029 86.5958 315.209 87.6696C316.384 88.7434 317.306 90.0358 317.97 91.5429C318.634 93.0501 319.016 94.7017 319.118 96.49H310.526C310.323 95.1117 309.823 94.0497 309.03 93.3078C308.237 92.5698 307.175 92.195 305.847 92.195C304.519 92.195 303.418 92.605 302.547 93.421C301.676 94.241 301.243 95.2367 301.243 96.4119C301.243 97.2319 301.485 97.9425 301.973 98.5595C302.457 99.1725 303.086 99.7113 303.852 100.168C304.617 100.629 305.464 101.039 306.382 101.394C307.3 101.749 308.222 102.085 309.143 102.39C313.08 103.671 315.919 105.267 317.657 107.185C319.395 109.102 320.266 111.542 320.266 114.506C320.266 116.552 319.895 118.418 319.153 120.105C318.411 121.792 317.4 123.264 316.123 124.517C314.842 125.77 313.322 126.754 311.557 127.469C309.792 128.183 307.89 128.543 305.843 128.543C301.497 128.543 298.005 127.305 295.373 124.825C292.74 122.346 291.268 118.883 290.963 114.435H299.708L299.716 114.432Z" fill="#353638"/>
    <path d="M19.548 58.0256H34.6466C41.8834 58.0256 47.3159 59.5015 50.9363 62.4494C54.5567 65.3974 56.3649 69.7979 56.3649 75.6469C56.3649 80.2582 55.1113 83.9871 52.6079 86.8374C50.1045 89.6916 46.3708 91.6088 41.4148 92.6005L56.4391 112.975H45.8006L26.4607 85.5333H33.8225C38.5833 85.5333 42.0787 84.7523 44.3087 83.1905C46.5427 81.6287 47.6557 79.1649 47.6557 75.7914C47.6557 72.4178 46.5661 69.915 44.3829 68.4312C42.1998 66.9436 38.6575 66.2017 33.7444 66.2017H28.1674V112.975H19.5402V58.0217L19.548 58.0256Z" fill="#353638"/>
    <path d="M64.5468 58.0256H73.174V104.798H91.9164V112.979H64.5429V58.0256H64.5468Z" fill="#353638"/>
    <path d="M87.3586 25.2859L91.3305 21.4985C91.6351 21.2173 91.8851 20.9557 92.0882 20.7254C92.2913 20.4911 92.4475 20.2802 92.5646 20.0889C92.6818 19.8976 92.7638 19.7063 92.8146 19.5189C92.8654 19.3315 92.8888 19.1323 92.8888 18.9215C92.8888 18.6403 92.8419 18.3787 92.7521 18.1484C92.6623 17.9141 92.5295 17.711 92.3577 17.5353C92.1858 17.3596 91.9866 17.223 91.7601 17.1254C91.5336 17.0317 91.2836 16.9848 91.0103 16.9848C90.4049 16.9848 89.9245 17.1995 89.5691 17.629C89.2176 18.0586 89.038 18.6481 89.038 19.3939H87.3391C87.3391 18.7809 87.425 18.2265 87.5969 17.7345C87.7687 17.2425 88.0109 16.8286 88.3233 16.485C88.6357 16.1414 89.0224 15.8759 89.4754 15.6885C89.9284 15.5011 90.4362 15.4113 90.9907 15.4113C91.5141 15.4113 91.9983 15.4972 92.4397 15.6768C92.881 15.8525 93.2598 16.0985 93.5762 16.4186C93.8925 16.7388 94.1464 17.1175 94.3338 17.5549C94.5213 17.9922 94.615 18.4646 94.615 18.9722C94.615 19.3041 94.5799 19.6126 94.5096 19.8937C94.4393 20.1748 94.3221 20.4638 94.1542 20.7488C93.9862 21.0377 93.7675 21.3345 93.4941 21.643C93.2208 21.9514 92.8849 22.295 92.4787 22.666L89.7527 25.1961H94.5564V26.8009H87.3586V25.2859Z" fill="#353638"/>
    <path d="M95.7516 19.3433C95.7516 18.7381 95.8376 18.1914 96.0094 17.6995C96.1812 17.2075 96.4273 16.7975 96.7514 16.4578C97.0756 16.1181 97.47 15.8604 97.9309 15.6808C98.3917 15.5012 98.9229 15.4075 99.5087 15.4075C100.095 15.4075 100.602 15.4934 101.067 15.673C101.532 15.8487 101.926 16.1025 102.25 16.4383C102.575 16.7702 102.821 17.1762 102.992 17.6565C103.164 18.1368 103.25 18.6795 103.25 19.2847V22.9511C103.25 24.2552 102.938 25.2548 102.309 25.9537C101.684 26.6487 100.778 27.0001 99.5946 27.0001C98.4113 27.0001 97.4271 26.6448 96.7514 25.9381C96.0797 25.2314 95.7438 24.2357 95.7438 22.955V19.3511L95.7516 19.3433ZM97.9856 24.7745C98.3332 25.204 98.8526 25.4188 99.5399 25.4188C100.227 25.4188 100.731 25.2118 101.055 24.798C101.379 24.3841 101.54 23.7437 101.54 22.873V19.4331C101.54 18.6248 101.372 18.0118 101.032 17.6018C100.692 17.188 100.192 16.981 99.5243 16.981C98.8565 16.981 98.3488 17.1919 97.9934 17.6097C97.638 18.0274 97.4622 18.6365 97.4622 19.4331V22.8418C97.4622 23.7008 97.638 24.345 97.9856 24.7745Z" fill="#353638"/>
    <path d="M104.269 25.286L108.241 21.4986C108.545 21.2175 108.795 20.9559 108.998 20.7255C109.201 20.4912 109.358 20.2804 109.475 20.089C109.592 19.8977 109.674 19.7064 109.725 19.519C109.775 19.3316 109.799 19.1324 109.799 18.9216C109.799 18.6405 109.752 18.3789 109.662 18.1485C109.572 17.9142 109.44 17.7112 109.268 17.5355C109.096 17.3598 108.897 17.2231 108.67 17.1255C108.444 17.0318 108.194 16.9849 107.92 16.9849C107.315 16.9849 106.835 17.1997 106.479 17.6292C106.128 18.0587 105.948 18.6483 105.948 19.394H104.249C104.249 18.781 104.335 18.2266 104.507 17.7346C104.679 17.2426 104.921 16.8287 105.233 16.4851C105.546 16.1415 105.932 15.876 106.385 15.6886C106.839 15.5012 107.346 15.4114 107.901 15.4114C108.424 15.4114 108.908 15.4973 109.35 15.6769C109.791 15.8526 110.17 16.0986 110.486 16.4188C110.803 16.7389 111.056 17.1177 111.244 17.555C111.431 17.9923 111.525 18.4647 111.525 18.9723C111.525 19.3042 111.49 19.6127 111.42 19.8938C111.349 20.1749 111.232 20.4639 111.064 20.7489C110.896 21.0379 110.678 21.3346 110.404 21.6431C110.131 21.9515 109.795 22.2951 109.389 22.6661L106.663 25.1962H111.466V26.801H104.269V25.286Z" fill="#353638"/>
    <path d="M114.193 23.3886C114.243 23.7127 114.333 23.9938 114.458 24.2437C114.583 24.4897 114.739 24.7006 114.919 24.8802C115.103 25.0598 115.306 25.1925 115.54 25.2823C115.774 25.3721 116.032 25.419 116.313 25.419C116.618 25.419 116.899 25.3604 117.161 25.2433C117.422 25.1301 117.649 24.9661 117.836 24.7591C118.024 24.5522 118.168 24.3062 118.274 24.0173C118.379 23.7283 118.434 23.4199 118.434 23.0841C118.434 22.7483 118.383 22.4437 118.274 22.1704C118.168 21.8932 118.02 21.6511 117.836 21.4442C117.653 21.2372 117.426 21.0732 117.169 20.96C116.911 20.8429 116.63 20.7843 116.329 20.7843C115.966 20.7843 115.645 20.8624 115.364 21.0185C115.083 21.1747 114.806 21.4246 114.525 21.7682L113.041 21.3426L114.072 15.599H119.133V17.2077H115.376L114.95 19.6012C115.263 19.4606 115.536 19.3591 115.767 19.3044C115.997 19.2498 116.263 19.2225 116.555 19.2225C117.071 19.2225 117.547 19.3201 117.989 19.5114C118.43 19.7027 118.809 19.9682 119.133 20.3157C119.457 20.6632 119.711 21.0654 119.891 21.534C120.074 22.0025 120.164 22.5101 120.164 23.0567C120.164 23.6034 120.066 24.1461 119.875 24.6225C119.684 25.1027 119.418 25.5205 119.078 25.8719C118.739 26.2272 118.336 26.5045 117.872 26.6997C117.407 26.8988 116.907 26.9964 116.372 26.9964C115.837 26.9964 115.36 26.9066 114.907 26.7309C114.458 26.5513 114.06 26.3053 113.716 25.9891C113.373 25.6728 113.091 25.2901 112.877 24.8528C112.662 24.4155 112.529 23.9275 112.49 23.3925H114.185L114.193 23.3886Z" fill="#353638"/>
    <path d="M135.587 135.555H0.000427246V0H135.587V135.555ZM7.65126 127.906H127.936V7.64906H7.65126V127.906Z" fill="#353638"/>
</svg>
